#!OML:ASF H:\Terrain\Walking\May29\JustinRory\Justin.ASF
:FULLY-SPECIFIED
:DEGREES
625
root 7.32261 17.6108 -16.7039 -2.38504 0.373317 0.220157
lowerback 7.02996 -0.162269 -2.82008
upperback -0.480828 -0.359072 2.15801
thorax -4.41613 -0.085982 3.87179
lowerneck -16.071 -3.29741 -9.49385
upperneck 14.7393 -3.46168 6.81315
head 7.46056 -1.56535 3.41525
rclavicle 1.11847e-014 -1.70955e-014
rhumerus -13.3721 30.1011 -97.0852
rradius 106.226
rwrist -20.3409
rhand -23.1922 33.1511
rfingers 7.12502
rthumb 3.25749 3.19628
lclavicle 1.11847e-014 -1.70955e-014
lhumerus -1.22717 -32.614 89.5492
lradius 100.902
lwrist 13.4613
lhand -19.5806 42.2683
lfingers 7.12502
lthumb 6.74466 72.1409
rfemur -4.65866 -5.55087 18.7141
rtibia 20.2673
rfoot -11.3186 -12.5343
rtoes 5.83624
lfemur -4.04947 -0.33318 -15.8713
ltibia 18.944
lfoot -11.3675 2.35926
ltoes -12.0012
626
root 7.3556 17.6096 -16.7048 -2.08646 0.741046 1.87616
lowerback 6.86932 -0.232215 -4.3493
upperback -0.668656 -0.595403 1.75517
thorax -4.49258 -0.166078 4.34205
lowerneck -16.0717 -3.35472 -9.52495
upperneck 14.942 -3.51263 6.66195
head 7.52975 -1.60713 3.36578
rclavicle 6.08157e-015 3.57812e-015
rhumerus -13.3344 29.3744 -96.2737
rradius 106.334
rwrist -20.0732
rhand -22.907 33.5091
rfingers 7.12502
rthumb 3.53293 3.55864
lclavicle 6.08157e-015 3.57812e-015
lhumerus -1.50499 -30.8251 90.1547
lradius 100.558
lwrist 12.4956
lhand -19.9993 42.2823
lfingers 7.12502
lthumb 6.34052 72.1674
rfemur -4.84234 -6.67616 16.6261
rtibia 20.0789
rfoot -11.0231 -11.6911
rtoes 5.27568
lfemur -4.45041 -0.644551 -17.909
ltibia 19.129
lfoot -11.4199 2.50657
ltoes -12.5878
627
root 7.33471 17.6106 -16.6902 -2.31228 0.0952709 -0.28133
lowerback 6.87878 -0.158686 -2.60347
upperback -0.573739 -0.318062 2.4937
thorax -4.43094 -0.0649427 4.09556
lowerneck -16.0119 -3.36789 -9.56222
upperneck 14.9527 -3.51107 6.57139
head 7.52201 -1.6181 3.34205
rclavicle 2.73453e-014 -9.54166e-015
rhumerus -13.3593 28.6183 -95.5708
rradius 106.591
rwrist -19.6978
rhand -23.2581 32.8759
rfingers 7.12502
rthumb 3.19388 2.92003
lclavicle 2.73453e-014 -9.54166e-015
lhumerus -2.33377 -28.0705 91.4257
lradius 99.2991
lwrist 11.1555
lhand -19.58 40.754
lfingers 7.12502
lthumb 6.74526 70.6266
rfemur -4.48058 -5.22455 19.2793
rtibia 19.7906
rfoot -11.1107 -12.6235
rtoes 6.27559
lfemur -4.26436 -0.209575 -15.338
ltibia 19.4169
lfoot -11.6203 2.53698
ltoes -12.6768
628
root 7.33399 17.6074 -16.6792 -2.43721 -0.345039 -1.11978
lowerback 6.96939 -0.09638 -1.82866
upperback -0.629269 -0.160777 2.70107
thorax -4.55494 -0.000143358 3.85817
lowerneck -15.9334 -3.3646 -9.91997
upperneck 15.243 -3.5315 7.06273
head 7.62086 -1.60695 3.5678
rclavicle 5.49143e-015 1.51076e-014
rhumerus -13.6639 27.5711 -95.2656
rradius 106.956
rwrist -19.527
rhand -23.8727 32.7816
rfingers 7.12502
rthumb 2.60028 2.81768
lclavicle 5.49143e-015 1.51076e-014
lhumerus -1.11777 -28.4781 89.1266
lradius 100.728
lwrist 12.4766
lhand -20.5576 43.1433
lfingers 7.12502
lthumb 5.8015 73.0439
rfemur -4.19 -4.57274 20.2772
rtibia 19.4925
rfoot -11.0656 -12.8239
rtoes 6.55506
lfemur -4.1689 0.0581497 -14.356
ltibia 19.7204
lfoot -11.8454 2.64589
ltoes -12.4296
